/* XPM */
static char *_e008867ef7f4adde22940996fcb0286F1uDH2r2136zrAfi[] = {
/* columns rows colors chars-per-pixel */
"64 64 158 2 ",
"   c None",
".  c black",
"X  c #080202",
"o  c #0C0303",
"O  c #0F0A08",
"+  c #120404",
"@  c #110506",
"#  c #110606",
"$  c #120707",
"%  c #150505",
"&  c #170606",
"*  c #160707",
"=  c #1A0606",
"-  c #170909",
";  c #110D0A",
":  c #120D0A",
">  c #160F0C",
",  c #190908",
"<  c #1A0809",
"1  c #1E090A",
"2  c #1C0A0A",
"3  c #1C0B0A",
"4  c #1C0C0B",
"5  c #19120D",
"6  c #001A15",
"7  c #1A1310",
"8  c #1E1611",
"9  c #200707",
"0  c #210B0B",
"q  c #210D0B",
"w  c #230E0D",
"e  c #250C0D",
"r  c #270D0C",
"t  c #240F0D",
"y  c #260E0D",
"u  c #2E0E0F",
"i  c #2B100F",
"p  c #2D100F",
"a  c #31100F",
"s  c #211713",
"d  c #2B1210",
"f  c #261D12",
"g  c #271B14",
"h  c #261A15",
"j  c #251C17",
"k  c #2E1F17",
"l  c #321210",
"z  c #321211",
"x  c #371312",
"c  c #321411",
"v  c #321412",
"b  c #361614",
"n  c #3C1313",
"m  c #391613",
"M  c #3B1613",
"N  c #3B1713",
"B  c #3E1715",
"V  c #3F1916",
"C  c #3E1917",
"Z  c #0A240D",
"A  c #0D250E",
"S  c #0E250F",
"D  c #0F250F",
"F  c #002115",
"G  c #0F2711",
"H  c #0A2A11",
"J  c #0A2B12",
"K  c #00201B",
"L  c #062919",
"P  c #072A19",
"I  c #102610",
"U  c #112610",
"Y  c #112711",
"T  c #102911",
"R  c #08341F",
"E  c #0F371C",
"W  c #0F371D",
"Q  c #173110",
"!  c #1B3111",
"~  c #1C3211",
"^  c #1D3213",
"/  c #1E3313",
"(  c #1F3313",
")  c #1C3413",
"_  c #1F3413",
"`  c #1D3414",
"'  c #1E3514",
"]  c #183814",
"[  c #2E221C",
"{  c #30201B",
"}  c #38271D",
"|  c #3B2D1D",
" . c #223615",
".. c #002922",
"X. c #003422",
"o. c #3B2921",
"O. c #451816",
"+. c #491D18",
"@. c #4D1C1A",
"#. c #4D1F1D",
"$. c #4E1F1C",
"%. c #46211D",
"&. c #58221F",
"*. c #5B231E",
"=. c #492524",
"-. c #5D2B21",
";. c #552A29",
":. c #463124",
">. c #612723",
",. c #652F29",
"<. c #74362A",
"1. c #693433",
"2. c #7E3C34",
"3. c #394F0F",
"4. c #204213",
"5. c #2A4615",
"6. c #2C4615",
"7. c #2D4716",
"8. c #2E4716",
"9. c #2F4816",
"0. c #2E4918",
"q. c #304716",
"w. c #304816",
"e. c #314818",
"r. c #304918",
"t. c #314918",
"y. c #324918",
"u. c #334919",
"i. c #314A19",
"p. c #354B19",
"a. c #354B1A",
"s. c #315216",
"d. c #3C5010",
"f. c #3D5010",
"g. c #3E5112",
"h. c #3D5212",
"j. c #3E5313",
"k. c #3D5913",
"l. c #316A1F",
"z. c #094227",
"x. c #16582E",
"c. c #405112",
"v. c #415112",
"b. c #415213",
"n. c #405313",
"m. c #425213",
"M. c #4C7C11",
"N. c #5F2F4A",
"B. c #6E2F40",
"V. c #BA3A66",
"C. c #844241",
"Z. c #FF9C15",
"A. c #FFD711",
"S. c #993AA8",
"D. c #FF4398",
"F. c #FF73B8",
"G. c #BE43FF",
"H. c #F373FF",
/* pixels */
"o.[ o.o.:.:.o.:.o.o.o.o.[ [ [ [ { o.[ o.:.:.:.o.:.o.o.o.o.o.o.o.o.[ o.[ [ [ [ o.o.o.o.o.k { k { [ o.k o.[ [ :.o.:.o.o.o.o.o.o.o.",
"*.@.O.n n :.>.C.1.>.>.*.*.>.>.>.*.@.O.n n :.<.C.1.>.>.*.*.O.>.>.*.@.O.n n o.>.C.1.<.<.*.&.-.*.*.-.@.O.n [ :.o.>.C.2.>.>.>.O.>.>.",
"@.O.@.O.9 o.2.#.@.@.@.@.*.>.@.@.@.O.@.O.9 o.2.#.@.@.@.*.#.>.#.@.@.O.@.O.9 [ 2.#.@.@.@.&.#.#.@.@.#.#.u O.9 o.:.<.%.@.@.@.*.>.$.@.",
"@.@.O.@.z.z.z.i @.@.@.#.#.@.@.@.@.@.O.@.u [ >.@.@.@.*.#.@.#.@.@.@.@.O.@.u o.>.@.@.@.*.#.@.@.@.@.i l.x.i p :.>.b @.@.@.$.#.$.@.@.",
"@.@.@.z.z.z...y i @.@.*.n @.@.@.@.@.@.@.z.| | O.@.@.@.-.n @.@.@.@.@.@.@.9 [ >.@.@.>.@.@.@.-.n n 1 x.x.i 9 z.z.z.r #.@.-.n @.@.@.",
"@.@.@.x.z...X.| z.i @.n n @.@.@.@.#.@.x.x.x...4 @.-.n n n @.@.@.@.@.@.O.9 o.O.@.@.&.n n @.n O.0 i ..x.| | ..z.z.X.r @.n n @.@.@.",
"n @.@.0 + s ..x.x.x.O.u u @.@.n n B.F.B.x...| - 1 0 n n O.@.@.n n @.@.n 9 o.O.n n n n O.@.@.0 z.X.N.H.N.+ ; ..z.x.z O.u u @.@.n ",
"u u 9 9 u g N.G.l.l.l.9 u u u u d F.A.D.+ 5 . o.| | X.* u . . 9 u u 9 9 u :.n 9 9 1 u u u * x.x.x.H.A.G.< 7 q + 3 0 9 9 u u u a ",
"[ [ o.[ G.S.Z.S.| l.M.s [ [ z.z.| 1.D.B.z.X.x.x.x...| z.z.7 [ o.o.o.o.o.o.o.[ [ [ [ [ o.7 l.l.l.X.N.G.N.o.o.o.o.o.o.o.{ o.o.o.[ ",
">.<.>.>.N.Z.A.Z.N.* * 0 O.x.x.x...- 6 L x.e l.x...3 ..| x.x.< o.>.C.2.2.>.>.>.O.O.n n n y M.l.z.| s L e >.*.-.-.*.*.*.@.O.n n :.",
">.#.@.@.z S.Z.S.G.y 0 O.0 l.B.H.N.4 y < e e e e < 4 < ..| l.X.7 <.*.*.*.@.@.*.>.@.@.n O.@.0 o 5 ..x.x.x.u @.@.#.@.@.@.#.@.O.9 o.",
">.@.@.*.@.G.N.L L z.d y d $ H.A.G.y y i O.O.O.O.y y y x.x.x...s *.@.*.@.#.*.@.@.@.@.@.@.@.n + s < ..x.l.u @.@.@.@.@.#.@.@.@.u :.",
"n @.O.@.@.3 L z.z...| | z.z.N.G.N.#.O.O.O.O.O.O.u u l.l.l.X.| s z d %.@.$.@.@.@.@.@.O.@.@.O.9 [ 0 | < B.F.B.@.-.n n n O.@.O.9 [ ",
"n O.@.O.@.O.x.z...< z...x.x.W O * O.O.O.O.O.O.n n u M.l.z.- z.| z.z.B.D.@.@.O.@.@.O.@.@.@.@.u 7 z.z.| F.A.D.@.n O.n @.@.O.O.9 o.",
"n n O.@.O.@.y 3 4 x.x.x...x.l.s u n O.u u u O.u u O.< 0 < x.x...D.V.Z.V.@.n @.@.@.@.@.@.@.@.+ x.x.x...B.D.B.| z.z.u n O.@.n 9 [ ",
"n 9 9 9 u u u < l.l.l.X.o . < :.u . 9 . 9 9 9 . 9 9 9 1 . x.    B.Z.A.Z.B.a 9 u = u u 9 9 . < l.x...x.W W 6 ..| x.x.< u 9 9 u o.",
"[ [ [ [ [ o.[ o.M.l.z.> g s o.o.o.o.o.o.o.[ o.[                   V.Z.V.D.              :.o.o.s s > l.x...; - X.l.l.l.g o.o.o.o.",
"@.>.*.*.@.O.n u n g b =.1.>.>.*.*.O.>.>.*.@.O.n n                 D.B.L               >.C.2.>.-.>.y b 0 e 3 | * z.l.M.%.>.>.>.@.",
"@.*.O.O.O.n O.n . o.2.#.@.@.@.*.#.>.#.@.@.O.@.O.9               x.W W ..x.x.          <.#.#.@.@.*.>.%.d 3 z.z.| o > b d O.O.O.O.",
"#.O.O.O.O.O.n O.9 [ >.@.@.@.*.#.@.#.@.O.@.@.O.@.u               l.x...|   x.        >.>.@.@.@.#.$.$.@.d y ..x.x.x.s *.O.O.O.O.%.",
"u O.O.O.O.O.O.O.. o.n O.@.@.@.-.n @.n >.@.@.@.@.9                     | z.|         @.O.@.@.@.*.n d o.| z.z...x.l.s u n O.O.O.@.",
"u O.O.O.O.O.O.n . o.O.@.@.&.n n n u >.@.@.@.@.O.9                   x.x.x...| | z.z.O.@.O.@.@.n e | ..x.x.x.3 = + o.n O.O.O.O.a ",
"9 O.O.u u O.O.u . o.O.n n n n n u 2.@.n n @.@.n 9                 l.l.l.X.  x.x.x...| O.@.@.O.u z.B.z...x.l.d 0 9 o.n u a O.n 9 ",
"9 9 9 9 9 9 . . 9 :.n 9 9 = u { >.. . 9 u u 9 9                   M.l.z.    l.x...  | z.z.9 9 x.G.H.N.G.+ < 1 1 u :.u . . . . . ",
"o.[ o.o.o.o.o.o.o.o.k o.o.                                                          ..x.x.x.| l.N.A.Z.G.B.[ [ [ [ [ o.[ o.o.[ [ ",
"C.<.>.>.>.-.-.&.*.*.@.O.n n X.X.X.                                                    ..x.l.z.N.H.Z.Z.N.b *.O.O.u u u n n u :.>.",
"@.@.>.#.@.#.#.@.@.@.#.@.O.0 ..X.z.z.                                                    z.| X.F G.N.G.G.O.#.*.O.O.u n O.u . :.<.",
"O.@.O.@.@.@.@.@.@.#.@.@.#.B.F.B.z.z.                                                  x.x.x...z.L L N.d @.O.O.O.O.O.O.O.u . o.O.",
"@.O.@.@.@.@.*.n n n O.@.O.F.A.D.                                                    l.l.l.X.  ..z.z.  *.O.O.O.O.O.n O.O.n . [ n ",
"O.@.O.@.@.@.n O.n @.@.O.O.B.D.B.|                                             X.X.X.M.l.|             *.O.n O.O.n O.O.O.O.9 [ n ",
"n O.@.O.@.@.@.n @.n O.@.n W W W ..X.X.X.                                    z.z.z...| z.                u O.O.O.O.O.O.O.O.. [ n ",
"9 9 9 u 9 u u u u u u 9 + l.x...z...z.z.z.B.H.N.                            z.z...|                     9 . 9 * 9 9 . . . 9 [ n ",
"[ o.o.:.:.o.:.o.o.o.o.[ [         z...z.z.H.A.G.z.z.z.o.    z.z.z.            X.| z.                        o.:.o.o.o.o.o.o.o.o.",
"@.O.n n :.*.2.>.>.>.@.@.>.*.c 3 x.x.x...| N.G.N.x.x.x.  o.x.x.x.X.X.X.        ..x.x.x.                      >.C.2.>.>.>.O.>.>.*.",
"O.@.O.9 o.>.#.O.O.O.O.@.*.O.y l.l.l.X.. z.W 6   X.l.l.l.  l.x.....z.z.z.  z.z.| X.l.l.l.                  :.<.%.@.@.@.*.>.$.@.@.",
"@.O.@.u o.*.O.O.O.O.#.#.O.O.y M.l.z., # x.x...    z.l.M.        z...z.z.x.x.x...  z.l.M.                  >.>.@.@.@.$.$.$.@.@.@.",
"@.@.@.9 o.u n O.O.O.@.u O.O.O.y y y y .   l.                  x.x.x...  l.x...                            @.O.@.@.@.&.n #.@.@.@.",
"@.@.O.9 o.n O.O.O.O.u u O.O.O.O.O.O.n .                       l.x...|     | z.z.                          O.@.O.@.@.n n @.@.@.@.",
"@.@.n 9 o.n u u O.n 9 9 O.O.u u O.O.p .                             |   B.F.B.x.x.                        n O.@.@.O.u u @.@.n n ",
"u 9 9 u :.u . . . . . 9 9 9 9 9 9 . .                               z.z.F.A.D.x.l.                        n 9 u 9 9 9 u u u u a ",
"[ [ [ o.[ o.o.[ [ o.o.[ o.[ [                                     x.x.x.B.D.B.                              o.o.o.o.o.o.k o.o.o.",
":.>.<.>.>.>.>.n >.O.n n n O.O.n                                 l.l.l.X.  + C >.O.. O.n n O.O.u   >.C.<.>.>.>.>.*.*.*.*.#.O.n n ",
"o.>.#.@.@.@.@.@.*.>.@.n O.O.@.9                                 M.l.z.X.X.X.O.@.u >.@.n O.@.n 9 :.<.@.@.>.#.@.#.#.@.@.@.#.@.O.9 ",
":.>.@.@.*.@.@.@.@.@.@.@.O.@.O.9                               X.X.X.  ..z.z.z.u 2.@.@.@.@.@.n 9 o.O.O.@.O.@.@.@.@.@.@.#.@.@.#.u ",
"[ n @.O.@.@.@.@.O.@.@.n O.@.O.a                             z.z.z.N.z.z...z.z.>.@.@.@.O.@.@.O.9 [ n @.O.@.@.@.@.&.n n n O.@.O.9 ",
"o.n O.@.O.@.O.@.@.@.O.n @.O.@.9                             z.z.G.H.N.G.x.y >.O.@.@.O.@.@.@.@.u [ n O.@.O.@.@.@.n O.n @.@.O.O.9 ",
"[ n n O.@.O.@.O.@.@.O.n O.O.n 9                                 N.A.Z.G.N.i n @.@.@.@.@.@.@.@.9 [ n n O.@.O.@.@.@.n @.n O.@.n 9 ",
"o.n 9 9 9 u u u u u u u 9 9 . p                               B.H.Z.Z.N.X < < 9 u * u u 9 9 . u [ n 9 9 9 u 9 u u u u u u 9 9 u ",
"[ [ o.[ o.:.:.:.o.:.o.o.o.o.o.                                  G.N.G.G.z.z.z.g o.:.o.o.o.o.o.o.o.o.[ o.o.:.:.o.:.o.o.o.o.[ [ [ ",
">.*.@.O.n O.:.>.C.1.>.>.*.*.O.>.>.*.@.O.n n   >.C.1.<.<.*.*.*.*.q W N.W ..x.x.x.z 2.>.*.*.*.O.>.>.@.O.n u u :.<.C.1.>.>.*.*.>.>.",
"@.@.O.@.O.9 o.2.#.@.@.@.*.#.>.#.@.@.O.@.O.9 [ 2.#.@.@.@.*.#.#.@.i l.W ..= X.l.l.l.i O.O.O.@.>.$.O.O.n O.n . o.2.#.@.@.@.@.*.>.@.",
"@.@.@.O.@.u [ >.@.@.@.*.#.@.#.@.@.@.@.O.@.u o.>.@.@.@.*.#.@.@.@.@.d 3 3 4 | z.l.M.y O.O.#.#.%.O.O.O.O.n O.9 o.>.@.@.@.@.#.#.@.@.",
"@.@.@.@.@.9 o.n O.@.@.@.*.n @.@.@.@.@.@.@.9 [ >.@.@.-.#.@.#.&.n n n y 3 | | z.< * y O.O.@.u O.O.O.O.O.O.O.. o.n O.@.@.@.*.n @.@.",
"@.@.@.@.O.9 o.O.@.@.*.n n n @.@.@.@.@.@.O.1 o.O.@.@.*.n n @.n O.n z.z.z...x.x.x.y n O.O.u p O.O.O.O.O.O.n . o.O.@.@.@.@.n n @.@.",
"n n @.@.n . o.O.n n n n n O.n #.n n @.@.n 9 o.O.n n n n O.@.@.n x.x.x...* ..x.l.0 O.O.n = 9 O.O.u u O.O.u . o.O.n n @.O.u u @.@.",
"u u u = . u } n = 1 9 u 1 / . . 9 a p 9 9 p :.N 9 9 9 u u X.X.X.l.x...X.X.X.7 . . 1 . 3.. 9 9 9 9 9 9 . . 9 :.n 9 9 9 9 1 u u e ",
"g [ o.g [ [ 5 [ k o.[ o.g f.j o.{ o.o.o.o.o.%.o.o.[ o.| z.z.z...z.; ; ..z.z.z.o.[ o.[ f._ [ [ [ o.[ o.o.[ :.g :.o.[ [ [ [ o.9.k ",
"u.,.O.m.C O.z e a n O.O.0 c.O.1.>.>.>.>.>.*.*.*.*.@.O.n X.z...x.x.x.9.y K z.R n a u p w.e { *.x *.*.+.*.u O.x z @.O.n y u g u.;.",
"y.N u.c.N >.u.x a 6.@.a * n. .C y.>.%.n %.O.%.@.n c @.O.= n.z.X.l.4.k.3 C *.#.c.r n d c.+ w.>.c x c.u O.d O.x y.O.C O.a . 8 a.N ",
"c.Y w.c.a C q.c.O.a  .a * 0.Y x a y.@.C y.a m.a C y.a  .P P z.$ L 4.s.A n x n y./ x x w.% i.+.p x c.d x u x u q.u x u 9.* ` m.z ",
"m.Y / c. .n z c.u q.q.x + Y / z u q.U a f.n q.! y w.y.W x.E ..+ 9.= / U c p c c.^ u c.w.3 ^ y.c p w.p / a c.3 q.3 q.p q.. j.m.` ",
" .w. .q.^ q.z / z  .c.U 3.w.U / a / q.z c.Y v./ z z / l.x.6 X.X.J u / U a y.a U ^ z c.^ 6.g / p c.w.p p q.v.r f. .U y c.5.` y.Y ",
"q.Y q.q. .D z / q.Y c.U f.G q.U q. .q. .c.Y / Y y / q.0 o | ..z.J ] U a U  .y.Y f.q.Y q.! g / f.w.A f./ U 3.D v.! D Y 3.Z T w.Y ",
"I ! Y 6.A A 6.A / A / 5.A ` A A 6.Z / A 6./ A U 6./ A 9 < | q ..J ] A / A 6.U 9.f.A A 5.Y ^ A Z 6.Z 5.A 3.Z A 6.A 6.Q 5.! _ U A "
};
